<mxfile host="app.diagrams.net" modified="2023-07-25T13:25:44.960Z" agent="Mozilla/5.0 (Windows NT 10.0; Win64; x64) AppleWebKit/537.36 (KHTML, like Gecko) Chrome/114.0.0.0 Safari/537.36" etag="S2xzBq9D-MUda3o-m68W" version="21.5.1" type="google">
  <diagram id="XGLcSZz51nXG_pDtGuH0" name="Pagina-1">
    <mxGraphModel dx="2074" dy="2285" grid="1" gridSize="10" guides="1" tooltips="1" connect="1" arrows="1" fold="1" page="1" pageScale="1" pageWidth="827" pageHeight="1169" math="0" shadow="0">
      <root>
        <mxCell id="0" />
        <mxCell id="1" parent="0" />
        <mxCell id="ZF2tq0bWUxnyKEy-Sbig-2" value="" style="rounded=0;whiteSpace=wrap;html=1;strokeColor=#e87b0b;strokeWidth=3;" parent="1" vertex="1">
          <mxGeometry x="80" y="-20" width="1810" height="1260" as="geometry" />
        </mxCell>
        <mxCell id="ZF2tq0bWUxnyKEy-Sbig-3" value="EKS" style="sketch=0;points=[[0,0,0],[0.25,0,0],[0.5,0,0],[0.75,0,0],[1,0,0],[0,1,0],[0.25,1,0],[0.5,1,0],[0.75,1,0],[1,1,0],[0,0.25,0],[0,0.5,0],[0,0.75,0],[1,0.25,0],[1,0.5,0],[1,0.75,0]];outlineConnect=0;fontColor=#232F3E;gradientColor=#F78E04;gradientDirection=north;fillColor=#D05C17;strokeColor=#ffffff;dashed=0;verticalLabelPosition=middle;verticalAlign=middle;align=left;html=1;fontSize=12;fontStyle=0;aspect=fixed;shape=mxgraph.aws4.resourceIcon;resIcon=mxgraph.aws4.eks;labelPosition=right;" parent="1" vertex="1">
          <mxGeometry x="80" y="-20" width="40" height="40" as="geometry" />
        </mxCell>
        <mxCell id="ZF2tq0bWUxnyKEy-Sbig-7" value="" style="rounded=0;whiteSpace=wrap;html=1;dashed=1;" parent="1" vertex="1">
          <mxGeometry x="110" y="50" width="200" height="400" as="geometry" />
        </mxCell>
        <mxCell id="ZF2tq0bWUxnyKEy-Sbig-6" value="aws-observability" style="sketch=0;html=1;dashed=0;whitespace=wrap;fillColor=#2875E2;strokeColor=#ffffff;points=[[0.005,0.63,0],[0.1,0.2,0],[0.9,0.2,0],[0.5,0,0],[0.995,0.63,0],[0.72,0.99,0],[0.5,1,0],[0.28,0.99,0]];verticalLabelPosition=middle;align=left;verticalAlign=middle;shape=mxgraph.kubernetes.icon;prIcon=ns;labelPosition=right;" parent="1" vertex="1">
          <mxGeometry x="110" y="50" width="50" height="48" as="geometry" />
        </mxCell>
        <mxCell id="ZF2tq0bWUxnyKEy-Sbig-8" value="Fluentbit ConfigMap" style="sketch=0;html=1;dashed=0;whitespace=wrap;fillColor=#2875E2;strokeColor=#ffffff;points=[[0.005,0.63,0],[0.1,0.2,0],[0.9,0.2,0],[0.5,0,0],[0.995,0.63,0],[0.72,0.99,0],[0.5,1,0],[0.28,0.99,0]];verticalLabelPosition=bottom;align=center;verticalAlign=top;shape=mxgraph.kubernetes.icon;prIcon=cm" parent="1" vertex="1">
          <mxGeometry x="185" y="220" width="50" height="50" as="geometry" />
        </mxCell>
        <mxCell id="ZF2tq0bWUxnyKEy-Sbig-9" value="" style="rounded=0;whiteSpace=wrap;html=1;dashed=1;strokeColor=#CC0000;" parent="1" vertex="1">
          <mxGeometry x="110" y="470" width="510" height="370" as="geometry" />
        </mxCell>
        <mxCell id="ZF2tq0bWUxnyKEy-Sbig-10" value="domain-example" style="sketch=0;html=1;dashed=0;whitespace=wrap;fillColor=#2875E2;strokeColor=#ffffff;points=[[0.005,0.63,0],[0.1,0.2,0],[0.9,0.2,0],[0.5,0,0],[0.995,0.63,0],[0.72,0.99,0],[0.5,1,0],[0.28,0.99,0]];verticalLabelPosition=middle;align=left;verticalAlign=middle;shape=mxgraph.kubernetes.icon;prIcon=ns;labelPosition=right;" parent="1" vertex="1">
          <mxGeometry x="110" y="470" width="50" height="48" as="geometry" />
        </mxCell>
        <mxCell id="ZF2tq0bWUxnyKEy-Sbig-12" value="" style="rounded=0;whiteSpace=wrap;html=1;" parent="1" vertex="1">
          <mxGeometry x="155.5" y="570" width="220" height="150" as="geometry" />
        </mxCell>
        <mxCell id="ZF2tq0bWUxnyKEy-Sbig-11" value="Deployment" style="sketch=0;html=1;dashed=0;whitespace=wrap;fillColor=#2875E2;strokeColor=#ffffff;points=[[0.005,0.63,0],[0.1,0.2,0],[0.9,0.2,0],[0.5,0,0],[0.995,0.63,0],[0.72,0.99,0],[0.5,1,0],[0.28,0.99,0]];verticalLabelPosition=middle;align=left;verticalAlign=middle;shape=mxgraph.kubernetes.icon;prIcon=deploy;labelPosition=right;" parent="1" vertex="1">
          <mxGeometry x="155.5" y="570" width="50" height="48" as="geometry" />
        </mxCell>
        <mxCell id="ZF2tq0bWUxnyKEy-Sbig-20" value="&lt;div style=&quot;text-align: left;&quot;&gt;&lt;span style=&quot;background-color: initial;&quot;&gt;microservice-example&lt;/span&gt;&lt;/div&gt;" style="sketch=0;html=1;dashed=0;whitespace=wrap;fillColor=#2875E2;strokeColor=#ffffff;points=[[0.005,0.63,0],[0.1,0.2,0],[0.9,0.2,0],[0.5,0,0],[0.995,0.63,0],[0.72,0.99,0],[0.5,1,0],[0.28,0.99,0]];verticalLabelPosition=bottom;align=center;verticalAlign=top;shape=mxgraph.kubernetes.icon;prIcon=pod" parent="1" vertex="1">
          <mxGeometry x="240.5" y="630" width="50" height="48" as="geometry" />
        </mxCell>
        <mxCell id="ZF2tq0bWUxnyKEy-Sbig-37" style="edgeStyle=orthogonalEdgeStyle;rounded=0;orthogonalLoop=1;jettySize=auto;html=1;exitX=0.5;exitY=0;exitDx=0;exitDy=0;exitPerimeter=0;entryX=0.5;entryY=1;entryDx=0;entryDy=0;" parent="1" source="ZF2tq0bWUxnyKEy-Sbig-36" target="ZF2tq0bWUxnyKEy-Sbig-12" edge="1">
          <mxGeometry relative="1" as="geometry" />
        </mxCell>
        <mxCell id="ZF2tq0bWUxnyKEy-Sbig-36" value="microservice-example" style="sketch=0;html=1;dashed=0;whitespace=wrap;fillColor=#2875E2;strokeColor=#ffffff;points=[[0.005,0.63,0],[0.1,0.2,0],[0.9,0.2,0],[0.5,0,0],[0.995,0.63,0],[0.72,0.99,0],[0.5,1,0],[0.28,0.99,0]];verticalLabelPosition=bottom;align=center;verticalAlign=top;shape=mxgraph.kubernetes.icon;prIcon=svc" parent="1" vertex="1">
          <mxGeometry x="240.5" y="750" width="50" height="48" as="geometry" />
        </mxCell>
        <mxCell id="ZF2tq0bWUxnyKEy-Sbig-39" style="edgeStyle=orthogonalEdgeStyle;rounded=0;orthogonalLoop=1;jettySize=auto;html=1;exitX=0.5;exitY=0;exitDx=0;exitDy=0;exitPerimeter=0;entryX=0.5;entryY=1;entryDx=0;entryDy=0;" parent="1" edge="1">
          <mxGeometry relative="1" as="geometry">
            <mxPoint x="630" y="660" as="targetPoint" />
          </mxGeometry>
        </mxCell>
        <mxCell id="ZF2tq0bWUxnyKEy-Sbig-66" value="" style="rounded=0;whiteSpace=wrap;html=1;" parent="1" vertex="1">
          <mxGeometry x="395.5" y="570" width="170" height="150" as="geometry" />
        </mxCell>
        <mxCell id="ZF2tq0bWUxnyKEy-Sbig-67" value="Deployment" style="sketch=0;html=1;dashed=0;whitespace=wrap;fillColor=#2875E2;strokeColor=#ffffff;points=[[0.005,0.63,0],[0.1,0.2,0],[0.9,0.2,0],[0.5,0,0],[0.995,0.63,0],[0.72,0.99,0],[0.5,1,0],[0.28,0.99,0]];verticalLabelPosition=middle;align=left;verticalAlign=middle;shape=mxgraph.kubernetes.icon;prIcon=deploy;labelPosition=right;" parent="1" vertex="1">
          <mxGeometry x="395.5" y="570" width="50" height="48" as="geometry" />
        </mxCell>
        <mxCell id="ZF2tq0bWUxnyKEy-Sbig-68" value="&lt;div style=&quot;text-align: left;&quot;&gt;&lt;span style=&quot;background-color: initial;&quot;&gt;reloader-reloader&lt;/span&gt;&lt;/div&gt;" style="sketch=0;html=1;dashed=0;whitespace=wrap;fillColor=#2875E2;strokeColor=#ffffff;points=[[0.005,0.63,0],[0.1,0.2,0],[0.9,0.2,0],[0.5,0,0],[0.995,0.63,0],[0.72,0.99,0],[0.5,1,0],[0.28,0.99,0]];verticalLabelPosition=bottom;align=center;verticalAlign=top;shape=mxgraph.kubernetes.icon;prIcon=pod" parent="1" vertex="1">
          <mxGeometry x="455.5" y="630" width="50" height="48" as="geometry" />
        </mxCell>
        <mxCell id="ZF2tq0bWUxnyKEy-Sbig-72" value="" style="rounded=0;whiteSpace=wrap;html=1;dashed=1;" parent="1" vertex="1">
          <mxGeometry x="110" y="860" width="670" height="360" as="geometry" />
        </mxCell>
        <mxCell id="ZF2tq0bWUxnyKEy-Sbig-74" value="" style="rounded=0;whiteSpace=wrap;html=1;" parent="1" vertex="1">
          <mxGeometry x="160" y="941" width="170" height="150" as="geometry" />
        </mxCell>
        <mxCell id="ZF2tq0bWUxnyKEy-Sbig-75" value="&lt;div style=&quot;text-align: left;&quot;&gt;&lt;span style=&quot;background-color: initial;&quot;&gt;keda-admission-webhooks&lt;/span&gt;&lt;/div&gt;" style="sketch=0;html=1;dashed=0;whitespace=wrap;fillColor=#2875E2;strokeColor=#ffffff;points=[[0.005,0.63,0],[0.1,0.2,0],[0.9,0.2,0],[0.5,0,0],[0.995,0.63,0],[0.72,0.99,0],[0.5,1,0],[0.28,0.99,0]];verticalLabelPosition=bottom;align=center;verticalAlign=top;shape=mxgraph.kubernetes.icon;prIcon=pod" parent="1" vertex="1">
          <mxGeometry x="220" y="1001" width="50" height="48" as="geometry" />
        </mxCell>
        <mxCell id="ZF2tq0bWUxnyKEy-Sbig-87" style="edgeStyle=orthogonalEdgeStyle;rounded=0;orthogonalLoop=1;jettySize=auto;html=1;exitX=0.5;exitY=0;exitDx=0;exitDy=0;exitPerimeter=0;entryX=0.5;entryY=1;entryDx=0;entryDy=0;" parent="1" source="ZF2tq0bWUxnyKEy-Sbig-76" target="ZF2tq0bWUxnyKEy-Sbig-74" edge="1">
          <mxGeometry relative="1" as="geometry" />
        </mxCell>
        <mxCell id="ZF2tq0bWUxnyKEy-Sbig-76" value="keda-admission-webhooks" style="sketch=0;html=1;dashed=0;whitespace=wrap;fillColor=#2875E2;strokeColor=#ffffff;points=[[0.005,0.63,0],[0.1,0.2,0],[0.9,0.2,0],[0.5,0,0],[0.995,0.63,0],[0.72,0.99,0],[0.5,1,0],[0.28,0.99,0]];verticalLabelPosition=bottom;align=center;verticalAlign=top;shape=mxgraph.kubernetes.icon;prIcon=svc" parent="1" vertex="1">
          <mxGeometry x="220" y="1121" width="50" height="48" as="geometry" />
        </mxCell>
        <mxCell id="ZF2tq0bWUxnyKEy-Sbig-77" value="" style="rounded=0;whiteSpace=wrap;html=1;" parent="1" vertex="1">
          <mxGeometry x="350" y="941" width="170" height="150" as="geometry" />
        </mxCell>
        <mxCell id="ZF2tq0bWUxnyKEy-Sbig-78" value="Deployment" style="sketch=0;html=1;dashed=0;whitespace=wrap;fillColor=#2875E2;strokeColor=#ffffff;points=[[0.005,0.63,0],[0.1,0.2,0],[0.9,0.2,0],[0.5,0,0],[0.995,0.63,0],[0.72,0.99,0],[0.5,1,0],[0.28,0.99,0]];verticalLabelPosition=middle;align=left;verticalAlign=middle;shape=mxgraph.kubernetes.icon;prIcon=deploy;labelPosition=right;" parent="1" vertex="1">
          <mxGeometry x="350" y="941" width="50" height="48" as="geometry" />
        </mxCell>
        <mxCell id="ZF2tq0bWUxnyKEy-Sbig-79" value="&lt;div style=&quot;text-align: left;&quot;&gt;&lt;span style=&quot;background-color: initial;&quot;&gt;keda-operator&lt;/span&gt;&lt;/div&gt;" style="sketch=0;html=1;dashed=0;whitespace=wrap;fillColor=#2875E2;strokeColor=#ffffff;points=[[0.005,0.63,0],[0.1,0.2,0],[0.9,0.2,0],[0.5,0,0],[0.995,0.63,0],[0.72,0.99,0],[0.5,1,0],[0.28,0.99,0]];verticalLabelPosition=bottom;align=center;verticalAlign=top;shape=mxgraph.kubernetes.icon;prIcon=pod" parent="1" vertex="1">
          <mxGeometry x="410" y="1001" width="50" height="48" as="geometry" />
        </mxCell>
        <mxCell id="ZF2tq0bWUxnyKEy-Sbig-88" style="edgeStyle=orthogonalEdgeStyle;rounded=0;orthogonalLoop=1;jettySize=auto;html=1;exitX=0.5;exitY=0;exitDx=0;exitDy=0;exitPerimeter=0;entryX=0.5;entryY=1;entryDx=0;entryDy=0;" parent="1" source="ZF2tq0bWUxnyKEy-Sbig-80" target="ZF2tq0bWUxnyKEy-Sbig-77" edge="1">
          <mxGeometry relative="1" as="geometry" />
        </mxCell>
        <mxCell id="ZF2tq0bWUxnyKEy-Sbig-80" value="keda-operator" style="sketch=0;html=1;dashed=0;whitespace=wrap;fillColor=#2875E2;strokeColor=#ffffff;points=[[0.005,0.63,0],[0.1,0.2,0],[0.9,0.2,0],[0.5,0,0],[0.995,0.63,0],[0.72,0.99,0],[0.5,1,0],[0.28,0.99,0]];verticalLabelPosition=bottom;align=center;verticalAlign=top;shape=mxgraph.kubernetes.icon;prIcon=svc" parent="1" vertex="1">
          <mxGeometry x="410" y="1121" width="50" height="48" as="geometry" />
        </mxCell>
        <mxCell id="ZF2tq0bWUxnyKEy-Sbig-81" value="keda" style="sketch=0;html=1;dashed=0;whitespace=wrap;fillColor=#2875E2;strokeColor=#ffffff;points=[[0.005,0.63,0],[0.1,0.2,0],[0.9,0.2,0],[0.5,0,0],[0.995,0.63,0],[0.72,0.99,0],[0.5,1,0],[0.28,0.99,0]];verticalLabelPosition=middle;align=left;verticalAlign=middle;shape=mxgraph.kubernetes.icon;prIcon=ns;labelPosition=right;" parent="1" vertex="1">
          <mxGeometry x="110" y="860" width="50" height="48" as="geometry" />
        </mxCell>
        <mxCell id="ZF2tq0bWUxnyKEy-Sbig-82" value="Deployment" style="sketch=0;html=1;dashed=0;whitespace=wrap;fillColor=#2875E2;strokeColor=#ffffff;points=[[0.005,0.63,0],[0.1,0.2,0],[0.9,0.2,0],[0.5,0,0],[0.995,0.63,0],[0.72,0.99,0],[0.5,1,0],[0.28,0.99,0]];verticalLabelPosition=middle;align=left;verticalAlign=middle;shape=mxgraph.kubernetes.icon;prIcon=deploy;labelPosition=right;" parent="1" vertex="1">
          <mxGeometry x="160" y="941" width="50" height="48" as="geometry" />
        </mxCell>
        <mxCell id="ZF2tq0bWUxnyKEy-Sbig-84" value="" style="rounded=0;whiteSpace=wrap;html=1;" parent="1" vertex="1">
          <mxGeometry x="540" y="941" width="193" height="150" as="geometry" />
        </mxCell>
        <mxCell id="ZF2tq0bWUxnyKEy-Sbig-83" value="Deployment" style="sketch=0;html=1;dashed=0;whitespace=wrap;fillColor=#2875E2;strokeColor=#ffffff;points=[[0.005,0.63,0],[0.1,0.2,0],[0.9,0.2,0],[0.5,0,0],[0.995,0.63,0],[0.72,0.99,0],[0.5,1,0],[0.28,0.99,0]];verticalLabelPosition=middle;align=left;verticalAlign=middle;shape=mxgraph.kubernetes.icon;prIcon=deploy;labelPosition=right;" parent="1" vertex="1">
          <mxGeometry x="540" y="941" width="50" height="48" as="geometry" />
        </mxCell>
        <mxCell id="ZF2tq0bWUxnyKEy-Sbig-85" value="&lt;div style=&quot;text-align: left;&quot;&gt;&lt;span style=&quot;background-color: initial;&quot;&gt;keda-operator-metrics-apiserver&lt;/span&gt;&lt;/div&gt;" style="sketch=0;html=1;dashed=0;whitespace=wrap;fillColor=#2875E2;strokeColor=#ffffff;points=[[0.005,0.63,0],[0.1,0.2,0],[0.9,0.2,0],[0.5,0,0],[0.995,0.63,0],[0.72,0.99,0],[0.5,1,0],[0.28,0.99,0]];verticalLabelPosition=bottom;align=center;verticalAlign=top;shape=mxgraph.kubernetes.icon;prIcon=pod" parent="1" vertex="1">
          <mxGeometry x="611.5" y="1001" width="50" height="48" as="geometry" />
        </mxCell>
        <mxCell id="ZF2tq0bWUxnyKEy-Sbig-89" style="edgeStyle=orthogonalEdgeStyle;rounded=0;orthogonalLoop=1;jettySize=auto;html=1;exitX=0.5;exitY=0;exitDx=0;exitDy=0;exitPerimeter=0;entryX=0.5;entryY=1;entryDx=0;entryDy=0;" parent="1" source="ZF2tq0bWUxnyKEy-Sbig-86" target="ZF2tq0bWUxnyKEy-Sbig-84" edge="1">
          <mxGeometry relative="1" as="geometry" />
        </mxCell>
        <mxCell id="ZF2tq0bWUxnyKEy-Sbig-86" value="keda-operator-metrics-apiserver" style="sketch=0;html=1;dashed=0;whitespace=wrap;fillColor=#2875E2;strokeColor=#ffffff;points=[[0.005,0.63,0],[0.1,0.2,0],[0.9,0.2,0],[0.5,0,0],[0.995,0.63,0],[0.72,0.99,0],[0.5,1,0],[0.28,0.99,0]];verticalLabelPosition=bottom;align=center;verticalAlign=top;shape=mxgraph.kubernetes.icon;prIcon=svc" parent="1" vertex="1">
          <mxGeometry x="611.5" y="1121" width="50" height="48" as="geometry" />
        </mxCell>
        <mxCell id="ZF2tq0bWUxnyKEy-Sbig-99" value="" style="rounded=0;whiteSpace=wrap;html=1;dashed=1;" parent="1" vertex="1">
          <mxGeometry x="330" y="50" width="1220" height="400" as="geometry" />
        </mxCell>
        <mxCell id="ZF2tq0bWUxnyKEy-Sbig-100" value="" style="rounded=0;whiteSpace=wrap;html=1;" parent="1" vertex="1">
          <mxGeometry x="370" y="180" width="170" height="150" as="geometry" />
        </mxCell>
        <mxCell id="ZF2tq0bWUxnyKEy-Sbig-101" value="&lt;div style=&quot;text-align: left;&quot;&gt;aws-load-balancer-controller&lt;br&gt;&lt;/div&gt;" style="sketch=0;html=1;dashed=0;whitespace=wrap;fillColor=#2875E2;strokeColor=#ffffff;points=[[0.005,0.63,0],[0.1,0.2,0],[0.9,0.2,0],[0.5,0,0],[0.995,0.63,0],[0.72,0.99,0],[0.5,1,0],[0.28,0.99,0]];verticalLabelPosition=bottom;align=center;verticalAlign=top;shape=mxgraph.kubernetes.icon;prIcon=pod" parent="1" vertex="1">
          <mxGeometry x="430" y="240" width="50" height="48" as="geometry" />
        </mxCell>
        <mxCell id="ZF2tq0bWUxnyKEy-Sbig-123" style="edgeStyle=orthogonalEdgeStyle;rounded=0;orthogonalLoop=1;jettySize=auto;html=1;exitX=0.5;exitY=0;exitDx=0;exitDy=0;exitPerimeter=0;entryX=0.5;entryY=1;entryDx=0;entryDy=0;" parent="1" source="ZF2tq0bWUxnyKEy-Sbig-102" target="ZF2tq0bWUxnyKEy-Sbig-100" edge="1">
          <mxGeometry relative="1" as="geometry" />
        </mxCell>
        <mxCell id="ZF2tq0bWUxnyKEy-Sbig-154" value="" style="rounded=0;whiteSpace=wrap;html=1;strokeColor=#3f8624;strokeWidth=2;" parent="1" vertex="1">
          <mxGeometry x="561" y="100" width="610" height="340" as="geometry" />
        </mxCell>
        <mxCell id="ZF2tq0bWUxnyKEy-Sbig-102" value="aws-load-balancer-webhook-service" style="sketch=0;html=1;dashed=0;whitespace=wrap;fillColor=#2875E2;strokeColor=#ffffff;points=[[0.005,0.63,0],[0.1,0.2,0],[0.9,0.2,0],[0.5,0,0],[0.995,0.63,0],[0.72,0.99,0],[0.5,1,0],[0.28,0.99,0]];verticalLabelPosition=bottom;align=center;verticalAlign=top;shape=mxgraph.kubernetes.icon;prIcon=svc" parent="1" vertex="1">
          <mxGeometry x="430" y="360" width="50" height="48" as="geometry" />
        </mxCell>
        <mxCell id="ZF2tq0bWUxnyKEy-Sbig-103" value="" style="rounded=0;whiteSpace=wrap;html=1;" parent="1" vertex="1">
          <mxGeometry x="570" y="180" width="170" height="150" as="geometry" />
        </mxCell>
        <mxCell id="ZF2tq0bWUxnyKEy-Sbig-104" value="Deployment" style="sketch=0;html=1;dashed=0;whitespace=wrap;fillColor=#2875E2;strokeColor=#ffffff;points=[[0.005,0.63,0],[0.1,0.2,0],[0.9,0.2,0],[0.5,0,0],[0.995,0.63,0],[0.72,0.99,0],[0.5,1,0],[0.28,0.99,0]];verticalLabelPosition=middle;align=left;verticalAlign=middle;shape=mxgraph.kubernetes.icon;prIcon=deploy;labelPosition=right;" parent="1" vertex="1">
          <mxGeometry x="570" y="180" width="50" height="48" as="geometry" />
        </mxCell>
        <mxCell id="ZF2tq0bWUxnyKEy-Sbig-105" value="&lt;div style=&quot;text-align: left;&quot;&gt;cert-manager&lt;br&gt;&lt;/div&gt;" style="sketch=0;html=1;dashed=0;whitespace=wrap;fillColor=#2875E2;strokeColor=#ffffff;points=[[0.005,0.63,0],[0.1,0.2,0],[0.9,0.2,0],[0.5,0,0],[0.995,0.63,0],[0.72,0.99,0],[0.5,1,0],[0.28,0.99,0]];verticalLabelPosition=bottom;align=center;verticalAlign=top;shape=mxgraph.kubernetes.icon;prIcon=pod" parent="1" vertex="1">
          <mxGeometry x="630" y="240" width="50" height="48" as="geometry" />
        </mxCell>
        <mxCell id="ZF2tq0bWUxnyKEy-Sbig-124" style="edgeStyle=orthogonalEdgeStyle;rounded=0;orthogonalLoop=1;jettySize=auto;html=1;exitX=0.5;exitY=0;exitDx=0;exitDy=0;exitPerimeter=0;entryX=0.5;entryY=1;entryDx=0;entryDy=0;" parent="1" source="ZF2tq0bWUxnyKEy-Sbig-106" target="ZF2tq0bWUxnyKEy-Sbig-103" edge="1">
          <mxGeometry relative="1" as="geometry" />
        </mxCell>
        <mxCell id="ZF2tq0bWUxnyKEy-Sbig-106" value="cert-manager" style="sketch=0;html=1;dashed=0;whitespace=wrap;fillColor=#2875E2;strokeColor=#ffffff;points=[[0.005,0.63,0],[0.1,0.2,0],[0.9,0.2,0],[0.5,0,0],[0.995,0.63,0],[0.72,0.99,0],[0.5,1,0],[0.28,0.99,0]];verticalLabelPosition=bottom;align=center;verticalAlign=top;shape=mxgraph.kubernetes.icon;prIcon=svc" parent="1" vertex="1">
          <mxGeometry x="630" y="360" width="50" height="48" as="geometry" />
        </mxCell>
        <mxCell id="ZF2tq0bWUxnyKEy-Sbig-107" value="kube-system" style="sketch=0;html=1;dashed=0;whitespace=wrap;fillColor=#2875E2;strokeColor=#ffffff;points=[[0.005,0.63,0],[0.1,0.2,0],[0.9,0.2,0],[0.5,0,0],[0.995,0.63,0],[0.72,0.99,0],[0.5,1,0],[0.28,0.99,0]];verticalLabelPosition=middle;align=left;verticalAlign=middle;shape=mxgraph.kubernetes.icon;prIcon=ns;labelPosition=right;" parent="1" vertex="1">
          <mxGeometry x="330" y="50" width="50" height="48" as="geometry" />
        </mxCell>
        <mxCell id="ZF2tq0bWUxnyKEy-Sbig-108" value="Deployment" style="sketch=0;html=1;dashed=0;whitespace=wrap;fillColor=#2875E2;strokeColor=#ffffff;points=[[0.005,0.63,0],[0.1,0.2,0],[0.9,0.2,0],[0.5,0,0],[0.995,0.63,0],[0.72,0.99,0],[0.5,1,0],[0.28,0.99,0]];verticalLabelPosition=middle;align=left;verticalAlign=middle;shape=mxgraph.kubernetes.icon;prIcon=deploy;labelPosition=right;" parent="1" vertex="1">
          <mxGeometry x="370" y="180" width="50" height="48" as="geometry" />
        </mxCell>
        <mxCell id="ZF2tq0bWUxnyKEy-Sbig-109" value="" style="rounded=0;whiteSpace=wrap;html=1;" parent="1" vertex="1">
          <mxGeometry x="760" y="180" width="193" height="150" as="geometry" />
        </mxCell>
        <mxCell id="ZF2tq0bWUxnyKEy-Sbig-110" value="Deployment" style="sketch=0;html=1;dashed=0;whitespace=wrap;fillColor=#2875E2;strokeColor=#ffffff;points=[[0.005,0.63,0],[0.1,0.2,0],[0.9,0.2,0],[0.5,0,0],[0.995,0.63,0],[0.72,0.99,0],[0.5,1,0],[0.28,0.99,0]];verticalLabelPosition=middle;align=left;verticalAlign=middle;shape=mxgraph.kubernetes.icon;prIcon=deploy;labelPosition=right;" parent="1" vertex="1">
          <mxGeometry x="760" y="180" width="50" height="48" as="geometry" />
        </mxCell>
        <mxCell id="ZF2tq0bWUxnyKEy-Sbig-111" value="&lt;div style=&quot;text-align: left;&quot;&gt;cert-manager-cainjector&lt;br&gt;&lt;/div&gt;" style="sketch=0;html=1;dashed=0;whitespace=wrap;fillColor=#2875E2;strokeColor=#ffffff;points=[[0.005,0.63,0],[0.1,0.2,0],[0.9,0.2,0],[0.5,0,0],[0.995,0.63,0],[0.72,0.99,0],[0.5,1,0],[0.28,0.99,0]];verticalLabelPosition=bottom;align=center;verticalAlign=top;shape=mxgraph.kubernetes.icon;prIcon=pod" parent="1" vertex="1">
          <mxGeometry x="831.5" y="240" width="50" height="48" as="geometry" />
        </mxCell>
        <mxCell id="ZF2tq0bWUxnyKEy-Sbig-114" value="" style="rounded=0;whiteSpace=wrap;html=1;" parent="1" vertex="1">
          <mxGeometry x="970" y="180" width="193" height="150" as="geometry" />
        </mxCell>
        <mxCell id="ZF2tq0bWUxnyKEy-Sbig-115" value="Deployment" style="sketch=0;html=1;dashed=0;whitespace=wrap;fillColor=#2875E2;strokeColor=#ffffff;points=[[0.005,0.63,0],[0.1,0.2,0],[0.9,0.2,0],[0.5,0,0],[0.995,0.63,0],[0.72,0.99,0],[0.5,1,0],[0.28,0.99,0]];verticalLabelPosition=middle;align=left;verticalAlign=middle;shape=mxgraph.kubernetes.icon;prIcon=deploy;labelPosition=right;" parent="1" vertex="1">
          <mxGeometry x="970" y="180" width="50" height="48" as="geometry" />
        </mxCell>
        <mxCell id="ZF2tq0bWUxnyKEy-Sbig-116" value="&lt;div style=&quot;text-align: left;&quot;&gt;cert-manager-webhook&lt;br&gt;&lt;/div&gt;" style="sketch=0;html=1;dashed=0;whitespace=wrap;fillColor=#2875E2;strokeColor=#ffffff;points=[[0.005,0.63,0],[0.1,0.2,0],[0.9,0.2,0],[0.5,0,0],[0.995,0.63,0],[0.72,0.99,0],[0.5,1,0],[0.28,0.99,0]];verticalLabelPosition=bottom;align=center;verticalAlign=top;shape=mxgraph.kubernetes.icon;prIcon=pod" parent="1" vertex="1">
          <mxGeometry x="1041.5" y="240" width="50" height="48" as="geometry" />
        </mxCell>
        <mxCell id="ZF2tq0bWUxnyKEy-Sbig-126" style="edgeStyle=orthogonalEdgeStyle;rounded=0;orthogonalLoop=1;jettySize=auto;html=1;exitX=0.5;exitY=0;exitDx=0;exitDy=0;exitPerimeter=0;entryX=0.5;entryY=1;entryDx=0;entryDy=0;" parent="1" source="ZF2tq0bWUxnyKEy-Sbig-117" target="ZF2tq0bWUxnyKEy-Sbig-114" edge="1">
          <mxGeometry relative="1" as="geometry" />
        </mxCell>
        <mxCell id="ZF2tq0bWUxnyKEy-Sbig-117" value="cert-manager-webhook" style="sketch=0;html=1;dashed=0;whitespace=wrap;fillColor=#2875E2;strokeColor=#ffffff;points=[[0.005,0.63,0],[0.1,0.2,0],[0.9,0.2,0],[0.5,0,0],[0.995,0.63,0],[0.72,0.99,0],[0.5,1,0],[0.28,0.99,0]];verticalLabelPosition=bottom;align=center;verticalAlign=top;shape=mxgraph.kubernetes.icon;prIcon=svc" parent="1" vertex="1">
          <mxGeometry x="1041.5" y="360" width="50" height="48" as="geometry" />
        </mxCell>
        <mxCell id="ZF2tq0bWUxnyKEy-Sbig-118" value="" style="rounded=0;whiteSpace=wrap;html=1;" parent="1" vertex="1">
          <mxGeometry x="1191.5" y="60" width="193" height="150" as="geometry" />
        </mxCell>
        <mxCell id="ZF2tq0bWUxnyKEy-Sbig-119" value="Deployment" style="sketch=0;html=1;dashed=0;whitespace=wrap;fillColor=#2875E2;strokeColor=#ffffff;points=[[0.005,0.63,0],[0.1,0.2,0],[0.9,0.2,0],[0.5,0,0],[0.995,0.63,0],[0.72,0.99,0],[0.5,1,0],[0.28,0.99,0]];verticalLabelPosition=middle;align=left;verticalAlign=middle;shape=mxgraph.kubernetes.icon;prIcon=deploy;labelPosition=right;" parent="1" vertex="1">
          <mxGeometry x="1191.5" y="60" width="50" height="48" as="geometry" />
        </mxCell>
        <mxCell id="ZF2tq0bWUxnyKEy-Sbig-120" value="&lt;div style=&quot;text-align: left;&quot;&gt;coredns&lt;br&gt;&lt;/div&gt;" style="sketch=0;html=1;dashed=0;whitespace=wrap;fillColor=#2875E2;strokeColor=#ffffff;points=[[0.005,0.63,0],[0.1,0.2,0],[0.9,0.2,0],[0.5,0,0],[0.995,0.63,0],[0.72,0.99,0],[0.5,1,0],[0.28,0.99,0]];verticalLabelPosition=bottom;align=center;verticalAlign=top;shape=mxgraph.kubernetes.icon;prIcon=pod" parent="1" vertex="1">
          <mxGeometry x="1263" y="120" width="50" height="48" as="geometry" />
        </mxCell>
        <mxCell id="ZF2tq0bWUxnyKEy-Sbig-127" style="edgeStyle=orthogonalEdgeStyle;rounded=0;orthogonalLoop=1;jettySize=auto;html=1;exitX=0.5;exitY=0;exitDx=0;exitDy=0;exitPerimeter=0;entryX=0.5;entryY=1;entryDx=0;entryDy=0;" parent="1" source="ZF2tq0bWUxnyKEy-Sbig-121" target="ZF2tq0bWUxnyKEy-Sbig-118" edge="1">
          <mxGeometry relative="1" as="geometry" />
        </mxCell>
        <mxCell id="fnUT_PBsHxzrCRMjwEjQ-14" style="edgeStyle=orthogonalEdgeStyle;rounded=0;orthogonalLoop=1;jettySize=auto;html=1;exitX=0.5;exitY=1;exitDx=0;exitDy=0;exitPerimeter=0;entryX=0.5;entryY=0;entryDx=0;entryDy=0;" parent="1" source="ZF2tq0bWUxnyKEy-Sbig-121" target="fnUT_PBsHxzrCRMjwEjQ-11" edge="1">
          <mxGeometry relative="1" as="geometry" />
        </mxCell>
        <mxCell id="ZF2tq0bWUxnyKEy-Sbig-121" value="kube-dns" style="sketch=0;html=1;dashed=0;whitespace=wrap;fillColor=#2875E2;strokeColor=#ffffff;points=[[0.005,0.63,0],[0.1,0.2,0],[0.9,0.2,0],[0.5,0,0],[0.995,0.63,0],[0.72,0.99,0],[0.5,1,0],[0.28,0.99,0]];verticalLabelPosition=middle;align=right;verticalAlign=middle;shape=mxgraph.kubernetes.icon;prIcon=svc;labelPosition=left;" parent="1" vertex="1">
          <mxGeometry x="1263" y="226" width="50" height="48" as="geometry" />
        </mxCell>
        <mxCell id="ZF2tq0bWUxnyKEy-Sbig-129" value="aws-node" style="sketch=0;html=1;dashed=0;whitespace=wrap;fillColor=#2875E2;strokeColor=#ffffff;points=[[0.005,0.63,0],[0.1,0.2,0],[0.9,0.2,0],[0.5,0,0],[0.995,0.63,0],[0.72,0.99,0],[0.5,1,0],[0.28,0.99,0]];verticalLabelPosition=bottom;align=center;verticalAlign=top;shape=mxgraph.kubernetes.icon;prIcon=ds;labelPosition=center;" parent="1" vertex="1">
          <mxGeometry x="1440" y="180" width="50" height="48" as="geometry" />
        </mxCell>
        <mxCell id="ZF2tq0bWUxnyKEy-Sbig-130" value="kube-proxy" style="sketch=0;html=1;dashed=0;whitespace=wrap;fillColor=#2875E2;strokeColor=#ffffff;points=[[0.005,0.63,0],[0.1,0.2,0],[0.9,0.2,0],[0.5,0,0],[0.995,0.63,0],[0.72,0.99,0],[0.5,1,0],[0.28,0.99,0]];verticalLabelPosition=bottom;align=center;verticalAlign=top;shape=mxgraph.kubernetes.icon;prIcon=ds" parent="1" vertex="1">
          <mxGeometry x="1440" y="270" width="50" height="48" as="geometry" />
        </mxCell>
        <mxCell id="ZF2tq0bWUxnyKEy-Sbig-131" value="" style="rounded=0;whiteSpace=wrap;html=1;dashed=1;" parent="1" vertex="1">
          <mxGeometry x="640" y="470" width="1220" height="370" as="geometry" />
        </mxCell>
        <mxCell id="ZF2tq0bWUxnyKEy-Sbig-132" value="" style="rounded=0;whiteSpace=wrap;html=1;" parent="1" vertex="1">
          <mxGeometry x="675.5" y="570" width="170" height="150" as="geometry" />
        </mxCell>
        <mxCell id="ZF2tq0bWUxnyKEy-Sbig-133" value="&lt;div style=&quot;text-align: left;&quot;&gt;metrics-server&lt;br&gt;&lt;/div&gt;" style="sketch=0;html=1;dashed=0;whitespace=wrap;fillColor=#2875E2;strokeColor=#ffffff;points=[[0.005,0.63,0],[0.1,0.2,0],[0.9,0.2,0],[0.5,0,0],[0.995,0.63,0],[0.72,0.99,0],[0.5,1,0],[0.28,0.99,0]];verticalLabelPosition=bottom;align=center;verticalAlign=top;shape=mxgraph.kubernetes.icon;prIcon=pod" parent="1" vertex="1">
          <mxGeometry x="735.5" y="630" width="50" height="48" as="geometry" />
        </mxCell>
        <mxCell id="ZF2tq0bWUxnyKEy-Sbig-156" style="edgeStyle=orthogonalEdgeStyle;rounded=0;orthogonalLoop=1;jettySize=auto;html=1;exitX=0.5;exitY=0;exitDx=0;exitDy=0;exitPerimeter=0;entryX=0.5;entryY=1;entryDx=0;entryDy=0;" parent="1" source="ZF2tq0bWUxnyKEy-Sbig-134" target="ZF2tq0bWUxnyKEy-Sbig-132" edge="1">
          <mxGeometry relative="1" as="geometry" />
        </mxCell>
        <mxCell id="fnUT_PBsHxzrCRMjwEjQ-3" value="" style="rounded=0;whiteSpace=wrap;html=1;strokeWidth=2;strokeColor=#00188d;" parent="1" vertex="1">
          <mxGeometry x="860" y="500" width="770" height="330" as="geometry" />
        </mxCell>
        <mxCell id="ZF2tq0bWUxnyKEy-Sbig-134" value="metrics-server" style="sketch=0;html=1;dashed=0;whitespace=wrap;fillColor=#2875E2;strokeColor=#ffffff;points=[[0.005,0.63,0],[0.1,0.2,0],[0.9,0.2,0],[0.5,0,0],[0.995,0.63,0],[0.72,0.99,0],[0.5,1,0],[0.28,0.99,0]];verticalLabelPosition=bottom;align=center;verticalAlign=top;shape=mxgraph.kubernetes.icon;prIcon=svc" parent="1" vertex="1">
          <mxGeometry x="735.5" y="750" width="50" height="48" as="geometry" />
        </mxCell>
        <mxCell id="ZF2tq0bWUxnyKEy-Sbig-135" value="" style="rounded=0;whiteSpace=wrap;html=1;" parent="1" vertex="1">
          <mxGeometry x="875.5" y="570" width="170" height="150" as="geometry" />
        </mxCell>
        <mxCell id="ZF2tq0bWUxnyKEy-Sbig-136" value="Deployment" style="sketch=0;html=1;dashed=0;whitespace=wrap;fillColor=#2875E2;strokeColor=#ffffff;points=[[0.005,0.63,0],[0.1,0.2,0],[0.9,0.2,0],[0.5,0,0],[0.995,0.63,0],[0.72,0.99,0],[0.5,1,0],[0.28,0.99,0]];verticalLabelPosition=middle;align=left;verticalAlign=middle;shape=mxgraph.kubernetes.icon;prIcon=deploy;labelPosition=right;" parent="1" vertex="1">
          <mxGeometry x="875.5" y="570" width="50" height="48" as="geometry" />
        </mxCell>
        <mxCell id="ZF2tq0bWUxnyKEy-Sbig-137" value="&lt;div style=&quot;text-align: left;&quot;&gt;prometheus-kube-state-metrics&lt;br&gt;&lt;/div&gt;" style="sketch=0;html=1;dashed=0;whitespace=wrap;fillColor=#2875E2;strokeColor=#ffffff;points=[[0.005,0.63,0],[0.1,0.2,0],[0.9,0.2,0],[0.5,0,0],[0.995,0.63,0],[0.72,0.99,0],[0.5,1,0],[0.28,0.99,0]];verticalLabelPosition=bottom;align=center;verticalAlign=top;shape=mxgraph.kubernetes.icon;prIcon=pod" parent="1" vertex="1">
          <mxGeometry x="935.5" y="630" width="50" height="48" as="geometry" />
        </mxCell>
        <mxCell id="ZF2tq0bWUxnyKEy-Sbig-157" style="edgeStyle=orthogonalEdgeStyle;rounded=0;orthogonalLoop=1;jettySize=auto;html=1;exitX=0.5;exitY=0;exitDx=0;exitDy=0;exitPerimeter=0;entryX=0.5;entryY=1;entryDx=0;entryDy=0;" parent="1" source="ZF2tq0bWUxnyKEy-Sbig-138" target="ZF2tq0bWUxnyKEy-Sbig-135" edge="1">
          <mxGeometry relative="1" as="geometry" />
        </mxCell>
        <mxCell id="ZF2tq0bWUxnyKEy-Sbig-138" value="prometheus-kube-state-metrics" style="sketch=0;html=1;dashed=0;whitespace=wrap;fillColor=#2875E2;strokeColor=#ffffff;points=[[0.005,0.63,0],[0.1,0.2,0],[0.9,0.2,0],[0.5,0,0],[0.995,0.63,0],[0.72,0.99,0],[0.5,1,0],[0.28,0.99,0]];verticalLabelPosition=bottom;align=center;verticalAlign=top;shape=mxgraph.kubernetes.icon;prIcon=svc" parent="1" vertex="1">
          <mxGeometry x="935.5" y="750" width="50" height="48" as="geometry" />
        </mxCell>
        <mxCell id="ZF2tq0bWUxnyKEy-Sbig-139" value="monitoring" style="sketch=0;html=1;dashed=0;whitespace=wrap;fillColor=#2875E2;strokeColor=#ffffff;points=[[0.005,0.63,0],[0.1,0.2,0],[0.9,0.2,0],[0.5,0,0],[0.995,0.63,0],[0.72,0.99,0],[0.5,1,0],[0.28,0.99,0]];verticalLabelPosition=middle;align=left;verticalAlign=middle;shape=mxgraph.kubernetes.icon;prIcon=ns;labelPosition=right;" parent="1" vertex="1">
          <mxGeometry x="640" y="470" width="50" height="48" as="geometry" />
        </mxCell>
        <mxCell id="ZF2tq0bWUxnyKEy-Sbig-140" value="Deployment" style="sketch=0;html=1;dashed=0;whitespace=wrap;fillColor=#2875E2;strokeColor=#ffffff;points=[[0.005,0.63,0],[0.1,0.2,0],[0.9,0.2,0],[0.5,0,0],[0.995,0.63,0],[0.72,0.99,0],[0.5,1,0],[0.28,0.99,0]];verticalLabelPosition=middle;align=left;verticalAlign=middle;shape=mxgraph.kubernetes.icon;prIcon=deploy;labelPosition=right;" parent="1" vertex="1">
          <mxGeometry x="675.5" y="570" width="50" height="48" as="geometry" />
        </mxCell>
        <mxCell id="ZF2tq0bWUxnyKEy-Sbig-141" value="" style="rounded=0;whiteSpace=wrap;html=1;" parent="1" vertex="1">
          <mxGeometry x="1065.5" y="570" width="193" height="150" as="geometry" />
        </mxCell>
        <mxCell id="ZF2tq0bWUxnyKEy-Sbig-142" value="Deployment" style="sketch=0;html=1;dashed=0;whitespace=wrap;fillColor=#2875E2;strokeColor=#ffffff;points=[[0.005,0.63,0],[0.1,0.2,0],[0.9,0.2,0],[0.5,0,0],[0.995,0.63,0],[0.72,0.99,0],[0.5,1,0],[0.28,0.99,0]];verticalLabelPosition=middle;align=left;verticalAlign=middle;shape=mxgraph.kubernetes.icon;prIcon=deploy;labelPosition=right;" parent="1" vertex="1">
          <mxGeometry x="1065.5" y="570" width="50" height="48" as="geometry" />
        </mxCell>
        <mxCell id="ZF2tq0bWUxnyKEy-Sbig-143" value="&lt;div style=&quot;text-align: left;&quot;&gt;prometheus-pushgateway&lt;br&gt;&lt;/div&gt;" style="sketch=0;html=1;dashed=0;whitespace=wrap;fillColor=#2875E2;strokeColor=#ffffff;points=[[0.005,0.63,0],[0.1,0.2,0],[0.9,0.2,0],[0.5,0,0],[0.995,0.63,0],[0.72,0.99,0],[0.5,1,0],[0.28,0.99,0]];verticalLabelPosition=bottom;align=center;verticalAlign=top;shape=mxgraph.kubernetes.icon;prIcon=pod" parent="1" vertex="1">
          <mxGeometry x="1137" y="630" width="50" height="48" as="geometry" />
        </mxCell>
        <mxCell id="fnUT_PBsHxzrCRMjwEjQ-1" style="edgeStyle=orthogonalEdgeStyle;rounded=0;orthogonalLoop=1;jettySize=auto;html=1;exitX=0.5;exitY=0;exitDx=0;exitDy=0;exitPerimeter=0;entryX=0.5;entryY=1;entryDx=0;entryDy=0;" parent="1" source="ZF2tq0bWUxnyKEy-Sbig-144" target="ZF2tq0bWUxnyKEy-Sbig-141" edge="1">
          <mxGeometry relative="1" as="geometry" />
        </mxCell>
        <mxCell id="ZF2tq0bWUxnyKEy-Sbig-144" value="prometheus-pushgateway" style="sketch=0;html=1;dashed=0;whitespace=wrap;fillColor=#2875E2;strokeColor=#ffffff;points=[[0.005,0.63,0],[0.1,0.2,0],[0.9,0.2,0],[0.5,0,0],[0.995,0.63,0],[0.72,0.99,0],[0.5,1,0],[0.28,0.99,0]];verticalLabelPosition=bottom;align=center;verticalAlign=top;shape=mxgraph.kubernetes.icon;prIcon=svc" parent="1" vertex="1">
          <mxGeometry x="1137" y="750" width="50" height="48" as="geometry" />
        </mxCell>
        <mxCell id="ZF2tq0bWUxnyKEy-Sbig-145" value="" style="rounded=0;whiteSpace=wrap;html=1;" parent="1" vertex="1">
          <mxGeometry x="1275.5" y="570" width="193" height="150" as="geometry" />
        </mxCell>
        <mxCell id="ZF2tq0bWUxnyKEy-Sbig-146" value="Deployment" style="sketch=0;html=1;dashed=0;whitespace=wrap;fillColor=#2875E2;strokeColor=#ffffff;points=[[0.005,0.63,0],[0.1,0.2,0],[0.9,0.2,0],[0.5,0,0],[0.995,0.63,0],[0.72,0.99,0],[0.5,1,0],[0.28,0.99,0]];verticalLabelPosition=middle;align=left;verticalAlign=middle;shape=mxgraph.kubernetes.icon;prIcon=deploy;labelPosition=right;" parent="1" vertex="1">
          <mxGeometry x="1275.5" y="570" width="50" height="48" as="geometry" />
        </mxCell>
        <mxCell id="ZF2tq0bWUxnyKEy-Sbig-147" value="&lt;div style=&quot;text-align: left;&quot;&gt;prometheus-server&lt;br&gt;&lt;/div&gt;" style="sketch=0;html=1;dashed=0;whitespace=wrap;fillColor=#2875E2;strokeColor=#ffffff;points=[[0.005,0.63,0],[0.1,0.2,0],[0.9,0.2,0],[0.5,0,0],[0.995,0.63,0],[0.72,0.99,0],[0.5,1,0],[0.28,0.99,0]];verticalLabelPosition=bottom;align=center;verticalAlign=top;shape=mxgraph.kubernetes.icon;prIcon=pod" parent="1" vertex="1">
          <mxGeometry x="1347" y="630" width="50" height="48" as="geometry" />
        </mxCell>
        <mxCell id="fnUT_PBsHxzrCRMjwEjQ-2" style="edgeStyle=orthogonalEdgeStyle;rounded=0;orthogonalLoop=1;jettySize=auto;html=1;exitX=0.5;exitY=0;exitDx=0;exitDy=0;exitPerimeter=0;entryX=0.5;entryY=1;entryDx=0;entryDy=0;" parent="1" source="ZF2tq0bWUxnyKEy-Sbig-148" target="ZF2tq0bWUxnyKEy-Sbig-145" edge="1">
          <mxGeometry relative="1" as="geometry" />
        </mxCell>
        <mxCell id="ZF2tq0bWUxnyKEy-Sbig-148" value="prometheus-server" style="sketch=0;html=1;dashed=0;whitespace=wrap;fillColor=#2875E2;strokeColor=#ffffff;points=[[0.005,0.63,0],[0.1,0.2,0],[0.9,0.2,0],[0.5,0,0],[0.995,0.63,0],[0.72,0.99,0],[0.5,1,0],[0.28,0.99,0]];verticalLabelPosition=bottom;align=center;verticalAlign=top;shape=mxgraph.kubernetes.icon;prIcon=svc" parent="1" vertex="1">
          <mxGeometry x="1347" y="750" width="50" height="48" as="geometry" />
        </mxCell>
        <mxCell id="ZF2tq0bWUxnyKEy-Sbig-149" value="" style="rounded=0;whiteSpace=wrap;html=1;" parent="1" vertex="1">
          <mxGeometry x="1650" y="570" width="193" height="150" as="geometry" />
        </mxCell>
        <mxCell id="ZF2tq0bWUxnyKEy-Sbig-150" value="Deployment" style="sketch=0;html=1;dashed=0;whitespace=wrap;fillColor=#2875E2;strokeColor=#ffffff;points=[[0.005,0.63,0],[0.1,0.2,0],[0.9,0.2,0],[0.5,0,0],[0.995,0.63,0],[0.72,0.99,0],[0.5,1,0],[0.28,0.99,0]];verticalLabelPosition=middle;align=left;verticalAlign=middle;shape=mxgraph.kubernetes.icon;prIcon=deploy;labelPosition=right;" parent="1" vertex="1">
          <mxGeometry x="1650" y="570" width="50" height="48" as="geometry" />
        </mxCell>
        <mxCell id="ZF2tq0bWUxnyKEy-Sbig-151" value="reloader-reloader" style="sketch=0;html=1;dashed=0;whitespace=wrap;fillColor=#2875E2;strokeColor=#ffffff;points=[[0.005,0.63,0],[0.1,0.2,0],[0.9,0.2,0],[0.5,0,0],[0.995,0.63,0],[0.72,0.99,0],[0.5,1,0],[0.28,0.99,0]];verticalLabelPosition=bottom;align=center;verticalAlign=top;shape=mxgraph.kubernetes.icon;prIcon=pod" parent="1" vertex="1">
          <mxGeometry x="1721.5" y="630" width="50" height="50" as="geometry" />
        </mxCell>
        <mxCell id="ZF2tq0bWUxnyKEy-Sbig-155" value="cert-manager" style="sketch=0;outlineConnect=0;fontColor=#232F3E;gradientColor=none;fillColor=#3F8624;strokeColor=none;dashed=0;verticalLabelPosition=middle;verticalAlign=middle;align=left;html=1;fontSize=12;fontStyle=0;aspect=fixed;pointerEvents=1;shape=mxgraph.aws4.certificate_manager;labelPosition=right;" parent="1" vertex="1">
          <mxGeometry x="561" y="102" width="43.87" height="58" as="geometry" />
        </mxCell>
        <mxCell id="fnUT_PBsHxzrCRMjwEjQ-4" value="Prometheus" style="sketch=0;aspect=fixed;pointerEvents=1;shadow=0;dashed=0;html=1;strokeColor=none;labelPosition=right;verticalLabelPosition=middle;verticalAlign=middle;align=left;fillColor=#00188D;shape=mxgraph.mscae.enterprise.monitor_running_apps" parent="1" vertex="1">
          <mxGeometry x="860" y="500" width="50" height="39" as="geometry" />
        </mxCell>
        <mxCell id="fnUT_PBsHxzrCRMjwEjQ-6" value="prometheus-node-exporter" style="sketch=0;html=1;dashed=0;whitespace=wrap;fillColor=#2875E2;strokeColor=#ffffff;points=[[0.005,0.63,0],[0.1,0.2,0],[0.9,0.2,0],[0.5,0,0],[0.995,0.63,0],[0.72,0.99,0],[0.5,1,0],[0.28,0.99,0]];verticalLabelPosition=bottom;align=center;verticalAlign=top;shape=mxgraph.kubernetes.icon;prIcon=ds" parent="1" vertex="1">
          <mxGeometry x="1530" y="570" width="50" height="48" as="geometry" />
        </mxCell>
        <mxCell id="fnUT_PBsHxzrCRMjwEjQ-8" style="edgeStyle=orthogonalEdgeStyle;rounded=0;orthogonalLoop=1;jettySize=auto;html=1;" parent="1" source="fnUT_PBsHxzrCRMjwEjQ-7" edge="1">
          <mxGeometry relative="1" as="geometry">
            <mxPoint x="1555" y="640" as="targetPoint" />
          </mxGeometry>
        </mxCell>
        <mxCell id="fnUT_PBsHxzrCRMjwEjQ-7" value="prometheus-node-exporter" style="sketch=0;html=1;dashed=0;whitespace=wrap;fillColor=#2875E2;strokeColor=#ffffff;points=[[0.005,0.63,0],[0.1,0.2,0],[0.9,0.2,0],[0.5,0,0],[0.995,0.63,0],[0.72,0.99,0],[0.5,1,0],[0.28,0.99,0]];verticalLabelPosition=bottom;align=center;verticalAlign=top;shape=mxgraph.kubernetes.icon;prIcon=svc" parent="1" vertex="1">
          <mxGeometry x="1530" y="750" width="50" height="48" as="geometry" />
        </mxCell>
        <mxCell id="fnUT_PBsHxzrCRMjwEjQ-11" value="" style="rounded=0;whiteSpace=wrap;html=1;" parent="1" vertex="1">
          <mxGeometry x="1191.5" y="290" width="193" height="150" as="geometry" />
        </mxCell>
        <mxCell id="fnUT_PBsHxzrCRMjwEjQ-12" value="Deployment" style="sketch=0;html=1;dashed=0;whitespace=wrap;fillColor=#2875E2;strokeColor=#ffffff;points=[[0.005,0.63,0],[0.1,0.2,0],[0.9,0.2,0],[0.5,0,0],[0.995,0.63,0],[0.72,0.99,0],[0.5,1,0],[0.28,0.99,0]];verticalLabelPosition=middle;align=left;verticalAlign=middle;shape=mxgraph.kubernetes.icon;prIcon=deploy;labelPosition=right;" parent="1" vertex="1">
          <mxGeometry x="1191.5" y="290" width="50" height="48" as="geometry" />
        </mxCell>
        <mxCell id="fnUT_PBsHxzrCRMjwEjQ-13" value="&lt;div style=&quot;text-align: left;&quot;&gt;coredns&lt;br&gt;&lt;/div&gt;" style="sketch=0;html=1;dashed=0;whitespace=wrap;fillColor=#2875E2;strokeColor=#ffffff;points=[[0.005,0.63,0],[0.1,0.2,0],[0.9,0.2,0],[0.5,0,0],[0.995,0.63,0],[0.72,0.99,0],[0.5,1,0],[0.28,0.99,0]];verticalLabelPosition=bottom;align=center;verticalAlign=top;shape=mxgraph.kubernetes.icon;prIcon=pod" parent="1" vertex="1">
          <mxGeometry x="1263" y="350" width="50" height="48" as="geometry" />
        </mxCell>
        <mxCell id="fnUT_PBsHxzrCRMjwEjQ-16" value="" style="rounded=0;whiteSpace=wrap;html=1;dashed=1;" parent="1" vertex="1">
          <mxGeometry x="800" y="860" width="630" height="360" as="geometry" />
        </mxCell>
        <mxCell id="fnUT_PBsHxzrCRMjwEjQ-17" value="" style="rounded=0;whiteSpace=wrap;html=1;" parent="1" vertex="1">
          <mxGeometry x="885.25" y="920" width="170" height="150" as="geometry" />
        </mxCell>
        <mxCell id="fnUT_PBsHxzrCRMjwEjQ-18" value="&lt;div style=&quot;text-align: left;&quot;&gt;adot-collector&lt;br&gt;&lt;/div&gt;" style="sketch=0;html=1;dashed=0;whitespace=wrap;fillColor=#2875E2;strokeColor=#ffffff;points=[[0.005,0.63,0],[0.1,0.2,0],[0.9,0.2,0],[0.5,0,0],[0.995,0.63,0],[0.72,0.99,0],[0.5,1,0],[0.28,0.99,0]];verticalLabelPosition=bottom;align=center;verticalAlign=top;shape=mxgraph.kubernetes.icon;prIcon=pod" parent="1" vertex="1">
          <mxGeometry x="945.25" y="980" width="50" height="48" as="geometry" />
        </mxCell>
        <mxCell id="fnUT_PBsHxzrCRMjwEjQ-21" value="" style="rounded=0;whiteSpace=wrap;html=1;" parent="1" vertex="1">
          <mxGeometry x="1150.75" y="920" width="170" height="150" as="geometry" />
        </mxCell>
        <mxCell id="fnUT_PBsHxzrCRMjwEjQ-22" value="Deployment" style="sketch=0;html=1;dashed=0;whitespace=wrap;fillColor=#2875E2;strokeColor=#ffffff;points=[[0.005,0.63,0],[0.1,0.2,0],[0.9,0.2,0],[0.5,0,0],[0.995,0.63,0],[0.72,0.99,0],[0.5,1,0],[0.28,0.99,0]];verticalLabelPosition=middle;align=left;verticalAlign=middle;shape=mxgraph.kubernetes.icon;prIcon=deploy;labelPosition=right;" parent="1" vertex="1">
          <mxGeometry x="1150.75" y="920" width="50" height="48" as="geometry" />
        </mxCell>
        <mxCell id="fnUT_PBsHxzrCRMjwEjQ-23" value="&lt;div style=&quot;text-align: left;&quot;&gt;opentelemetry-operator&lt;br&gt;&lt;/div&gt;" style="sketch=0;html=1;dashed=0;whitespace=wrap;fillColor=#2875E2;strokeColor=#ffffff;points=[[0.005,0.63,0],[0.1,0.2,0],[0.9,0.2,0],[0.5,0,0],[0.995,0.63,0],[0.72,0.99,0],[0.5,1,0],[0.28,0.99,0]];verticalLabelPosition=bottom;align=center;verticalAlign=top;shape=mxgraph.kubernetes.icon;prIcon=pod" parent="1" vertex="1">
          <mxGeometry x="1210.75" y="980" width="50" height="48" as="geometry" />
        </mxCell>
        <mxCell id="NAhrw1BXiRAs1-l37g2K-8" style="edgeStyle=orthogonalEdgeStyle;rounded=0;orthogonalLoop=1;jettySize=auto;html=1;exitX=0.5;exitY=0;exitDx=0;exitDy=0;exitPerimeter=0;entryX=0.5;entryY=1;entryDx=0;entryDy=0;" parent="1" source="fnUT_PBsHxzrCRMjwEjQ-25" target="fnUT_PBsHxzrCRMjwEjQ-21" edge="1">
          <mxGeometry relative="1" as="geometry" />
        </mxCell>
        <mxCell id="fnUT_PBsHxzrCRMjwEjQ-25" value="opentelemetry-operator" style="sketch=0;html=1;dashed=0;whitespace=wrap;fillColor=#2875E2;strokeColor=#ffffff;points=[[0.005,0.63,0],[0.1,0.2,0],[0.9,0.2,0],[0.5,0,0],[0.995,0.63,0],[0.72,0.99,0],[0.5,1,0],[0.28,0.99,0]];verticalLabelPosition=bottom;align=center;verticalAlign=top;shape=mxgraph.kubernetes.icon;prIcon=svc" parent="1" vertex="1">
          <mxGeometry x="1125.25" y="1121" width="50" height="48" as="geometry" />
        </mxCell>
        <mxCell id="fnUT_PBsHxzrCRMjwEjQ-26" value="opentelemetry-operator-system" style="sketch=0;html=1;dashed=0;whitespace=wrap;fillColor=#2875E2;strokeColor=#ffffff;points=[[0.005,0.63,0],[0.1,0.2,0],[0.9,0.2,0],[0.5,0,0],[0.995,0.63,0],[0.72,0.99,0],[0.5,1,0],[0.28,0.99,0]];verticalLabelPosition=middle;align=left;verticalAlign=middle;shape=mxgraph.kubernetes.icon;prIcon=ns;labelPosition=right;" parent="1" vertex="1">
          <mxGeometry x="800" y="860" width="50" height="48" as="geometry" />
        </mxCell>
        <mxCell id="fnUT_PBsHxzrCRMjwEjQ-27" value="Deployment" style="sketch=0;html=1;dashed=0;whitespace=wrap;fillColor=#2875E2;strokeColor=#ffffff;points=[[0.005,0.63,0],[0.1,0.2,0],[0.9,0.2,0],[0.5,0,0],[0.995,0.63,0],[0.72,0.99,0],[0.5,1,0],[0.28,0.99,0]];verticalLabelPosition=middle;align=left;verticalAlign=middle;shape=mxgraph.kubernetes.icon;prIcon=deploy;labelPosition=right;" parent="1" vertex="1">
          <mxGeometry x="885.25" y="920" width="50" height="48" as="geometry" />
        </mxCell>
        <mxCell id="fnUT_PBsHxzrCRMjwEjQ-31" style="edgeStyle=orthogonalEdgeStyle;rounded=0;orthogonalLoop=1;jettySize=auto;html=1;exitX=0.5;exitY=0;exitDx=0;exitDy=0;exitPerimeter=0;entryX=0.5;entryY=1;entryDx=0;entryDy=0;" parent="1" edge="1">
          <mxGeometry relative="1" as="geometry">
            <mxPoint x="1366.5" y="1070" as="targetPoint" />
          </mxGeometry>
        </mxCell>
        <mxCell id="fnUT_PBsHxzrCRMjwEjQ-37" style="edgeStyle=orthogonalEdgeStyle;rounded=0;orthogonalLoop=1;jettySize=auto;html=1;exitX=0.5;exitY=0;exitDx=0;exitDy=0;exitPerimeter=0;entryX=0.5;entryY=1;entryDx=0;entryDy=0;" parent="1" edge="1">
          <mxGeometry relative="1" as="geometry">
            <mxPoint x="1576.5" y="1070" as="targetPoint" />
          </mxGeometry>
        </mxCell>
        <mxCell id="NAhrw1BXiRAs1-l37g2K-17" style="edgeStyle=orthogonalEdgeStyle;rounded=0;orthogonalLoop=1;jettySize=auto;html=1;exitX=0.5;exitY=0;exitDx=0;exitDy=0;exitPerimeter=0;entryX=0.5;entryY=1;entryDx=0;entryDy=0;" parent="1" source="fnUT_PBsHxzrCRMjwEjQ-38" target="fnUT_PBsHxzrCRMjwEjQ-17" edge="1">
          <mxGeometry relative="1" as="geometry" />
        </mxCell>
        <mxCell id="fnUT_PBsHxzrCRMjwEjQ-38" value="adot-collector-service" style="sketch=0;html=1;dashed=0;whitespace=wrap;fillColor=#2875E2;strokeColor=#ffffff;points=[[0.005,0.63,0],[0.1,0.2,0],[0.9,0.2,0],[0.5,0,0],[0.995,0.63,0],[0.72,0.99,0],[0.5,1,0],[0.28,0.99,0]];verticalLabelPosition=bottom;align=center;verticalAlign=top;shape=mxgraph.kubernetes.icon;prIcon=svc" parent="1" vertex="1">
          <mxGeometry x="945.25" y="1121" width="50" height="48" as="geometry" />
        </mxCell>
        <mxCell id="NAhrw1BXiRAs1-l37g2K-1" style="edgeStyle=orthogonalEdgeStyle;rounded=0;orthogonalLoop=1;jettySize=auto;html=1;entryX=0.5;entryY=1;entryDx=0;entryDy=0;" parent="1" source="fnUT_PBsHxzrCRMjwEjQ-44" target="fnUT_PBsHxzrCRMjwEjQ-21" edge="1">
          <mxGeometry relative="1" as="geometry" />
        </mxCell>
        <mxCell id="fnUT_PBsHxzrCRMjwEjQ-44" value="opentelemetry-operator-&lt;br&gt;webhook" style="sketch=0;html=1;dashed=0;whitespace=wrap;fillColor=#2875E2;strokeColor=#ffffff;points=[[0.005,0.63,0],[0.1,0.2,0],[0.9,0.2,0],[0.5,0,0],[0.995,0.63,0],[0.72,0.99,0],[0.5,1,0],[0.28,0.99,0]];verticalLabelPosition=bottom;align=center;verticalAlign=top;shape=mxgraph.kubernetes.icon;prIcon=svc" parent="1" vertex="1">
          <mxGeometry x="1294.75" y="1121" width="50" height="48" as="geometry" />
        </mxCell>
      </root>
    </mxGraphModel>
  </diagram>
</mxfile>
